# xmcd
#
# Track frame offsets:
#	150
#	13262
#	25890
#	39770
#	54187
#	67020
#	83670
#	97437
#	112940
#	130775
#	146072
#	159730
#	177532
#	192615
#
# Disc length: 2762 seconds
#
# Revision: 0
# Processed by: cddbd v1.5.1PL0 Copyright (c) Steve Scherf et al.
# Submitted via: dBpowerAMP V4.0
#
DISCID=c40ac80e
DTITLE=The Shoppe - Along For The Ride
DYEAR=1900
DGENRE=Country
TTITLE0=Miss That Girl
TTITLE1=I'm Ready How 'Bout You
TTITLE2=How The End Should Start
TTITLE3=Low Down Lonely
TTITLE4=Better Man
TTITLE5=I Can See Forever From Here
TTITLE6=Rock City
TTITLE7=Young Man
TTITLE8=Life Ain't Got No Reason
TTITLE9=Only Here For A Little While
TTITLE10=Yes You Will
TTITLE11=Condemned To Desire
TTITLE12=Like You Ought Be Loved
TTITLE13=Looks Like I Loved You After All
EXTD=
EXTT0=
EXTT1=
EXTT2=
EXTT3=
EXTT4=
EXTT5=
EXTT6=
EXTT7=
EXTT8=
EXTT9=
EXTT10=
EXTT11=
EXTT12=
EXTT13=
PLAYORDER=
